<svg width="135" height="125" viewBox="0 0 135 125" fill="none" xmlns="http://www.w3.org/2000/svg">
<path d="M3 16V109C3 116.18 8.8203 122 16 122H114C121.18 122 127 116.18 127 109V16C127 8.8203 121.18 3 114 3H16C8.8203 3 3 8.8203 3 16Z" stroke="#3083FF" stroke-width="6"/>
<path d="M53.9615 110H19.0385C16.8081 110 15 108.192 15 105.962V104.503C15 103.078 16.1551 101.923 17.58 101.923C19.0049 101.923 20.16 100.768 20.16 99.3431V98.4615C20.16 96.5498 21.7098 95 23.6215 95H50.5251C52.4369 95 53.9867 96.5498 53.9867 98.4615V99.9164C53.9867 101.025 54.8851 101.923 55.9933 101.923C57.1016 101.923 58 102.821 58 103.93V105.962C58 108.192 56.1919 110 53.9615 110Z" fill="#3084FF"/>
<path d="M76.8951 54.4941L72.0325 49.6315L62.3808 59.2832L64.9686 61.8711C66.4588 63.3613 68.315 64.433 70.3507 64.9784C71.6781 65.3341 72.9373 65.911 74.0421 66.7284C75.4662 67.7819 77.4848 69.3474 78.8401 70.7027C81.1329 72.9955 84.0269 77.1862 84.0269 77.1862L94.4724 91.3184C94.8561 91.8375 95.2779 92.3273 95.7344 92.7837L103.499 100.549C104.735 101.784 106.394 102.503 108.14 102.559C112.11 102.687 115.363 99.4347 115.235 95.4644C115.179 93.7182 114.46 92.0589 113.225 90.8235L105.434 83.0329C104.994 82.5935 104.524 82.1861 104.026 81.814L89.9354 71.2776C89.9354 71.2776 85.9868 68.1242 83.7027 65.8401C82.5117 64.6491 81.0842 63.0053 79.9907 61.7049C78.8374 60.3333 78.0258 58.7138 77.5619 56.9828L76.8951 54.4941Z" fill="#3083FF"/>
<path d="M70.1431 46.3342L64.2524 52.2249L59.01 57.4673C58.4229 58.0543 57.6267 58.3842 56.7964 58.3842L55.0753 58.3842C54.1017 58.3842 53.1679 58.7709 52.4794 59.4594C51.7216 60.2172 51.3328 61.2683 51.415 62.3369L51.4475 62.7605C51.5504 64.0979 51.0638 65.4135 50.1153 66.362L49.8959 66.5814C49.3174 67.1598 48.6122 67.5957 47.8361 67.8544L47.5945 67.9349C46.6122 68.2623 45.5648 68.3445 44.5434 68.1743L44.4002 68.1504C42.9748 67.9129 41.6594 67.2359 40.6376 66.2141L30.8318 56.4084C29.5949 55.1715 28.8308 53.5401 28.6725 51.798L28.6472 51.5206C28.6115 51.127 28.6216 50.7306 28.6775 50.3394C28.8333 49.2486 29.3387 48.2378 30.1178 47.4587L30.6649 46.9116C31.6134 45.9631 32.929 45.4765 34.2664 45.5793L34.69 45.6119C35.7586 45.6941 36.8097 45.3053 37.5675 44.5475C38.256 43.859 38.6427 42.9252 38.6427 41.9516L38.6427 40.2305C38.6427 39.4002 38.9726 38.604 39.5596 38.0169L44.802 32.7745L50.6927 26.8838C51.2798 26.2967 52.0761 25.9669 52.9063 25.9669L54.5435 25.9669C55.5709 25.9669 56.5562 25.5588 57.2827 24.8323C58.0091 24.1058 58.4173 23.1205 58.4173 22.0931V21.5914C58.4173 20.4367 58.8102 19.3164 59.5316 18.4147L59.886 17.9716C60.6201 17.0541 61.6037 16.3682 62.7185 15.9966C63.5163 15.7307 64.3606 15.6327 65.1981 15.7088L65.234 15.7121C66.6943 15.8448 68.0619 16.4854 69.0988 17.5223L79.2141 27.6376C80.2359 28.6594 80.9129 29.9748 81.1504 31.4002L81.1743 31.5434C81.3445 32.5647 81.2623 33.6122 80.9349 34.5945L80.9035 34.6886C80.6125 35.5617 80.1222 36.355 79.4714 37.0058L79.0378 37.4394C78.0893 38.3879 76.7737 38.8746 75.4363 38.7717L75.0127 38.7391C73.9442 38.6569 72.8931 39.0458 72.1352 39.8036C71.4468 40.4921 71.06 41.4258 71.06 42.3995L71.06 44.1206C71.06 44.9508 70.7302 45.7471 70.1431 46.3342Z" fill="#3083FF"/>
</svg>
